<svg id="Capa_1" enable-background="new 0 0 512 512" height="512" viewBox="0 0 512 512" width="512" xmlns="http://www.w3.org/2000/svg"><g><path d="m449.154 149.376h-24.28v-19.754c0-4.143-3.357-7.5-7.5-7.5h-44.788c-1.758-21.04-10.841-40.029-24.688-54.402-.308-.382-.646-.728-1.009-1.034-16.181-16.266-38.57-26.351-63.271-26.351h-55.236c-46.706 0-85.146 36.051-88.968 81.787h-37.036c3.877-59.72 53.687-107.122 114.37-107.122h78.504c50.472 0 95.687 33.772 109.953 82.128 1.171 3.972 5.341 6.242 9.315 5.071 3.973-1.172 6.243-5.343 5.071-9.315-7.754-26.281-24.106-49.925-46.046-66.575-22.678-17.211-49.751-26.309-78.293-26.309h-78.504c-71.474 0-129.622 58.148-129.622 129.622v19.754h-24.28c-15.447 0-28.014 12.566-28.014 28.014v23.345c0 4.143 3.357 7.5 7.5 7.5s7.5-3.357 7.5-7.5v-23.345c0-7.176 5.838-13.014 13.014-13.014h24.28v103.593h-24.28c-7.176 0-13.014-5.838-13.014-13.015v-19.287c0-4.143-3.357-7.5-7.5-7.5s-7.5 3.357-7.5 7.5v19.287c0 15.447 12.566 28.015 28.014 28.015h24.452c1.945 44.935 22.122 87.586 55.458 117.745v83.671c0 15.228 12.388 27.615 27.615 27.615h23.129c4.143 0 7.5-3.357 7.5-7.5s-3.357-7.5-7.5-7.5h-23.129c-6.956 0-12.615-5.659-12.615-12.615v-71.565c58.031 41.593 138.457 41.591 196.488 0v71.566c0 6.956-5.659 12.615-12.615 12.615h-112.129c-4.143 0-7.5 3.357-7.5 7.5s3.357 7.5 7.5 7.5h112.129c15.228 0 27.615-12.388 27.615-27.615v-83.671c33.337-30.16 53.514-72.811 55.458-117.745h24.452c15.447 0 28.014-12.567 28.014-28.015v-77.565c0-15.448-12.566-28.014-28.014-28.014zm-39.766 138.386c-2.38 30.345-13.868 59.621-32.874 83.411v-47.346c0-19.316 14.13-36.517 33.141-40.136-.063 1.359-.152 2.716-.267 4.071zm-31.519-3.433c-10.547 10.561-16.354 24.588-16.354 39.498v63.612c-4.899 4.618-10.083 8.917-15.523 12.848v-26.586c0-16.603-13.513-30.11-30.121-30.11h-119.741c-16.608 0-30.121 13.508-30.121 30.11v26.587c-5.44-3.931-10.624-8.231-15.523-12.848v-63.612c0-8.945-2.105-17.566-6.056-25.319l25.409-25.408c24.508-1.667 43.941-22.125 43.941-47.048 0-23.457-17.213-42.963-39.67-46.567v-15.11h235.766v104.102c-12.072 1.612-23.234 7.089-32.007 15.851zm-242.946 86.131c-19.522-24.762-30.936-55.287-32.578-86.769 19.008 3.616 33.141 20.82 33.141 40.136v47.346c-.193-.234-.38-.471-.563-.713zm-32.797-206.084h56.982v15.11c-22.457 3.604-39.67 23.11-39.67 46.567 0 20.587 13.261 38.125 31.687 44.548l-15.403 15.402c-8.784-9.538-20.735-15.807-33.596-17.524zm64.482 93.848c-15.156 0-27.889-10.539-31.278-24.671h62.556c-3.388 14.132-16.122 24.671-31.278 24.671zm-31.278-39.671c3.389-14.132 16.122-24.67 31.278-24.67s27.889 10.538 31.278 24.67zm274.544-69.182h-307.748v-12.249h307.748zm-73.555-72.044c.623 1.085 2.22 4.353 1.617 8.443-.72 4.886-4.287 9.71-10.604 14.339-3.342 2.448-4.065 7.142-1.617 10.482 1.47 2.006 3.747 3.068 6.056 3.068 1.538 0 3.091-.473 4.427-1.451 6.506-4.767 11.15-10.021 13.904-15.687 3.924 7.85 6.51 16.482 7.427 25.601h-58.741c1.37-11.018 6.315-21.21 14.292-29.187 2.929-2.93 2.929-7.678 0-10.607-2.93-2.928-7.678-2.928-10.607 0-10.814 10.814-17.355 24.761-18.785 39.794h-20.188v-66.787h20.118c20.585 0 39.234 8.421 52.701 21.992zm-174.42 19.194c2.753 5.667 7.398 10.92 13.904 15.687 1.336.979 2.888 1.451 4.427 1.451 2.309 0 4.586-1.063 6.056-3.068 2.448-3.341 1.725-8.034-1.617-10.482-14.647-10.733-10.681-20.027-9.007-22.76 13.469-13.583 32.126-22.013 52.721-22.013h20.117v66.787h-20.187c-1.43-15.033-7.971-28.98-18.785-39.794-2.93-2.928-7.678-2.928-10.607 0-2.929 2.93-2.929 7.678 0 10.607 7.976 7.976 12.922 18.168 14.292 29.187h-58.741c.918-9.12 3.503-17.752 7.427-25.602zm89.031 332.736c-24.421-.802-48.592-7.487-69.922-19.412v-36.144c0-8.332 6.783-15.11 15.121-15.11h119.74c8.338 0 15.121 6.778 15.121 15.11v36.143c-24.304 13.574-52.239 20.325-80.06 19.413zm211.238-174.303c0 7.177-5.838 13.015-13.014 13.015h-24.28v-103.593h24.28c7.176 0 13.014 5.838 13.014 13.014z"/><path d="m273.288 218.406c-2.331-7.663-9.278-12.812-17.288-12.812s-14.957 5.148-17.288 12.812l-19.642 64.574c-2.026 6.663-.811 13.694 3.336 19.29 4.146 5.597 10.52 8.806 17.484 8.806h32.219c6.965 0 13.338-3.209 17.484-8.806 4.146-5.596 5.362-12.627 3.336-19.29zm4.254 74.934c-1.288 1.739-3.269 2.736-5.433 2.736h-32.219c-2.164 0-4.145-.997-5.433-2.736-1.289-1.738-1.666-3.924-1.036-5.994l19.642-64.574c.575-1.894 2.087-2.177 2.937-2.177s2.361.283 2.937 2.177l19.642 64.574c.629 2.07.252 4.256-1.037 5.994z"/><path d="m389.54 202.726h-81.765c-4.143 0-7.5 3.357-7.5 7.5v31.655c0 4.143 3.357 7.5 7.5 7.5h81.765c4.143 0 7.5-3.357 7.5-7.5v-31.655c0-4.143-3.357-7.5-7.5-7.5zm-7.5 31.655h-66.765v-16.655h66.765z"/></g></svg>