<svg id="Capa_1" enable-background="new 0 0 497 497" height="512" viewBox="0 0 497 497" width="512" xmlns="http://www.w3.org/2000/svg"><g><path d="m409.873 149.376-161.374 7.624-161.374-7.624v-27.254l161.374-7.122 161.374 7.122z" fill="#08a9f1"/><path d="m409.869 122.12v27.26l-12.09 4.453-12.09-4.463v-27.25l12.31-4.62z" fill="#0290cf"/><path d="m55.345 267.968h31.78l6.874-59.293-6.874-59.299h-31.78c-11.33 0-20.514 9.184-20.514 20.514v77.565c0 11.329 9.185 20.513 20.514 20.513z" fill="#deecf1"/><path d="m87.129 149.38 6.87 59.295-6.87 59.295h-21.5v-118.59z" fill="#a8d3d8"/><path d="m441.653 267.968h-31.78l-7.374-59.293 7.374-59.299h31.78c11.33 0 20.514 9.184 20.514 20.514v77.565c0 11.329-9.184 20.513-20.514 20.513z" fill="#deecf1"/><path d="m462.169 169.89v77.56c0 11.33-9.19 20.52-20.52 20.52h-24.18c11.33 0 20.52-9.19 20.52-20.52v-77.56c0-11.33-9.19-20.51-20.52-20.51h24.18c11.33 0 20.52 9.18 20.52 20.51z" fill="#a8d3d8"/><path d="m334.128 497h-171.258c-11.109 0-20.115-9.006-20.115-20.115v-97.336h211.488v97.336c0 11.109-9.006 20.115-20.115 20.115z" fill="#a8d3d8"/><path d="m354.239 379.55v97.33c0 11.11-9 20.12-20.11 20.12h-23.32c11.11 0 20.12-9.01 20.12-20.12v-97.33z" fill="#8ebac5"/><path d="m409.869 149.37v118.6l-48.35 115.18c-9.18 9.01-19.42 16.92-30.53 23.54h-164.98c-11.11-6.62-21.35-14.53-30.53-23.54l-48.35-115.18v-118.6h64.48l7.5 3.407 7.5-3.407z" fill="#deecf1"/><g><g><path d="m166.609 149.37v29.51c0 4.15-3.36 7.5-7.5 7.5s-7.5-3.35-7.5-7.5v-29.51z" fill="#7ca1b1"/></g></g><g><g><path d="m118.805 299.542c-1.92 0-3.839-.732-5.304-2.197-2.929-2.929-2.929-7.677.001-10.606l40.955-40.111c2.929-2.929 7.678-2.928 10.606.001s2.929 7.677-.001 10.606l-40.955 40.111c-1.463 1.464-3.383 2.196-5.302 2.196z" fill="#7ca1b1"/></g></g><path d="m409.869 149.37v118.6l-48.35 115.18c-9.18 9.01-19.42 16.92-30.53 23.54-24.13 14.39-52.35 22.65-82.49 22.65-4.07 0-8.1-.15-12.09-.45 25.59-1.89 49.53-9.75 70.4-22.2 11.11-6.62 21.35-14.53 30.53-23.54 29.84-29.28 48.35-70.07 48.35-115.18v-118.6z" fill="#a8d3d8"/><path d="m409.873 122.122h-51.973l-109.401-7.122-107.5 7.122h-53.874c0-67.446 54.676-122.122 122.122-122.122h78.504c67.446 0 122.122 54.676 122.122 122.122z" fill="#62dbfb"/><path d="m409.869 122.12h-24.18c0-67.44-54.67-122.12-122.12-122.12h24.18c67.45 0 122.12 54.68 122.12 122.12z" fill="#01d0fb"/><path d="m330.99 366.201v40.488c-24.136 14.39-52.349 22.653-82.491 22.653s-58.355-8.263-82.491-22.653v-40.488c0-12.482 10.127-22.61 22.62-22.61h119.742c12.493 0 22.62 10.128 22.62 22.61z" fill="#08a9f1"/><path d="m330.989 366.2v40.49c-7.2 4.29-14.77 8.04-22.64 11.19v-51.68c0-12.48-10.13-22.61-22.62-22.61h22.64c12.49 0 22.62 10.13 22.62 22.61z" fill="#0290cf"/><path d="m264.608 296.076h-32.218c-9.577 0-16.432-9.251-13.645-18.413l19.641-64.575c3.039-9.992 17.186-9.992 20.226 0l19.641 64.575c2.787 9.162-4.068 18.413-13.645 18.413z" fill="#678d98"/><path d="m264.609 296.08h-21.4c9.58 0 16.44-9.25 13.65-18.42l-19.05-62.65.58-1.92c3.04-9.99 17.18-9.99 20.22 0l19.64 64.57c2.79 9.17-4.06 18.42-13.64 18.42z" fill="#537983"/><path d="m195.166 218.553 2.903 7.497c-3.51 18.33-19.62 32.17-38.96 32.17s-35.45-13.84-38.96-32.17l3.683-7.497-3.683-7.503c3.51-18.33 19.62-32.17 38.96-32.17s35.45 13.84 38.96 32.17z" fill="#bbec6c"/><path d="m195.166 218.553 2.879 7.634c-3.56 18.256-19.638 32.033-38.936 32.033-4.11 0-8.08-.63-11.81-1.79 16.14-5.03 27.86-20.09 27.86-37.88s-11.72-32.85-27.86-37.88c3.73-1.16 7.7-1.79 11.81-1.79 19.348 0 35.459 13.849 38.963 32.175z" fill="#a2e62e"/><path d="m357.899 122.12h-218.8c0-14.68 3.87-28.47 10.65-40.38 3.59-6.31 7.99-12.1 13.07-17.22.08-.08.15-.15.23-.23 14.8-14.8 35.25-23.95 57.83-23.95h55.24c21.34 0 40.78 8.17 55.34 21.57.01.01.01.01.01.01 5.89 5.41 10.98 11.68 15.07 18.6 7.22 12.19 11.36 26.41 11.36 41.6z" fill="#8379c1"/><path d="m357.899 122.12h-21.18c0-45.17-36.62-81.78-81.79-81.78h21.19c45.17 0 81.78 36.61 81.78 81.78z" fill="#6e61b6"/><path d="m376.382 234.381h-70.45c-3.124 0-5.657-2.533-5.657-5.657v-20.341c0-3.124 2.533-5.657 5.657-5.657h70.45c3.124 0 5.657 2.533 5.657 5.657v20.341c0 3.124-2.533 5.657-5.657 5.657z" fill="#7ca1b1"/><path d="m382.039 208.39v20.33c0 3.13-2.53 5.66-5.66 5.66h-22.11c3.12 0 5.66-2.53 5.66-5.66v-20.33c0-3.13-2.54-5.66-5.66-5.66h22.11c3.13 0 5.66 2.53 5.66 5.66z" fill="#678d98"/><path d="m409.869 267.97c0 45.11-18.51 85.9-48.35 115.18v-66.82c0-13.36 5.41-25.45 14.16-34.2 2.95-2.94 6.26-5.5 9.88-7.61 7.14-4.16 15.45-6.55 24.31-6.55z" fill="#a8d3d8"/><path d="m409.869 267.97c0 45.11-18.51 85.9-48.35 115.18v-30.19c14.24-22.94 22.89-49.73 24.04-78.44 7.14-4.16 15.45-6.55 24.31-6.55z" fill="#8ebac5"/><path d="m135.484 316.327v66.826c-29.848-29.281-48.359-70.074-48.359-115.184 13.354 0 25.444 5.418 34.198 14.161 8.743 8.753 14.161 20.842 14.161 34.197z" fill="#a8d3d8"/><g><g><path d="m240.999 40.34h15v81.78h-15z" fill="#6e61b6"/></g></g><g><g><path d="m305.579 85.44c-9.48 9.47-14.7 22.07-14.7 35.47v1.21h-15v-1.21c0-17.41 6.78-33.77 19.09-46.08 2.93-2.93 7.68-2.93 10.61 0s2.93 7.68 0 10.61z" fill="#6e61b6"/></g></g><g><g><path d="m346.539 80.52c-2.52 5.98-7.12 11.53-13.74 16.55-.28.22-.56.43-.85.64-1.34.98-2.89 1.45-4.43 1.45-2.31 0-4.59-1.06-6.06-3.07-2.44-3.34-1.72-8.03 1.62-10.48 1.3-.95 2.48-1.91 3.54-2.88 4.12-3.73 6.5-7.57 7.07-11.46.73-5.01-1.83-8.8-1.86-8.83-.13-.17-.25-.34-.36-.52 5.89 5.41 10.98 11.68 15.07 18.6z" fill="#6e61b6"/></g></g><g><g><path d="m221.119 120.91v1.21h-15v-1.21c0-13.4-5.22-26-14.7-35.47-2.93-2.93-2.93-7.68 0-10.61s7.68-2.93 10.61 0c12.31 12.31 19.09 28.67 19.09 46.08z" fill="#6e61b6"/></g></g><g><g><path d="m174.289 96.09c-1.47 2.01-3.75 3.07-6.06 3.07-1.54 0-3.09-.47-4.43-1.45-6.61-4.85-11.31-10.19-14.05-15.97 3.59-6.31 7.99-12.1 13.07-17.22-1.6 3.9-2.58 11.98 9.85 21.09 3.34 2.45 4.06 7.14 1.62 10.48z" fill="#6e61b6"/></g></g><path d="m346.539 80.52c-2.52 5.98-7.12 11.53-13.74 16.55-1.6-5.01-3.68-9.81-6.18-14.34 4.12-3.73 6.5-7.57 7.07-11.46.73-5.01-1.83-8.8-1.86-8.83-.13-.17-.25-.34-.36-.52 5.89 5.41 10.98 11.68 15.07 18.6z" fill="#6354b1"/><g><path d="m198.779 218.55c0 2.56-.24 5.07-.71 7.5h-77.92c-.47-2.43-.71-4.94-.71-7.5s.24-5.07.71-7.5h77.92c.47 2.43.71 4.94.71 7.5z" fill="#678d98"/></g><path d="m198.779 218.55c0 2.56-.24 5.07-.71 7.5h-23.63c.48-2.43.72-4.94.72-7.5s-.24-5.07-.72-7.5h23.63c.47 2.43.71 4.94.71 7.5z" fill="#537983"/></g></svg>